<svg viewBox="0 0 640 360" fill="none" xmlns="http://www.w3.org/2000/svg">
<path d="M247.613 111.812V163H237.172L216.5 129.145V163H206.023V111.812H216.5L237.207 145.703V111.812H247.613ZM254.68 143.629C254.68 132.555 261.219 124.258 272.645 124.258C284.176 124.258 290.68 132.555 290.68 143.629V144.367C290.68 155.441 284.176 163.703 272.715 163.703C261.219 163.703 254.68 155.441 254.68 144.367V143.629ZM264.77 144.367C264.77 150.59 266.914 155.582 272.715 155.582C278.41 155.582 280.59 150.59 280.59 144.367V143.629C280.59 137.547 278.445 132.379 272.645 132.379C266.949 132.379 264.77 137.547 264.77 143.629V144.367ZM297.043 109H307.133V128.336C309.383 125.77 312.406 124.258 316.414 124.258C326.398 124.258 331.285 132.309 331.285 143.594V144.332C331.285 155.688 326.363 163.703 316.484 163.703C312.09 163.703 308.891 161.945 306.57 158.957L306.113 163H297.043V109ZM307.133 151.504C308.328 154.035 310.438 155.547 313.953 155.547C319.719 155.547 321.195 150.801 321.195 144.332V143.594C321.195 137.547 319.684 132.414 313.883 132.414C310.438 132.414 308.328 133.926 307.133 136.422V151.504ZM336.031 143.629C336.031 132.555 342.57 124.258 353.996 124.258C365.527 124.258 372.031 132.555 372.031 143.629V144.367C372.031 155.441 365.527 163.703 354.066 163.703C342.57 163.703 336.031 155.441 336.031 144.367V143.629ZM346.121 144.367C346.121 150.59 348.266 155.582 354.066 155.582C359.762 155.582 361.941 150.59 361.941 144.367V143.629C361.941 137.547 359.797 132.379 353.996 132.379C348.301 132.379 346.121 137.547 346.121 143.629V144.367ZM396.992 124.961V132.344H390.488V151.434C390.488 154.668 391.789 155.406 394.391 155.406C395.621 155.406 396.676 155.266 397.379 155.125V162.754C395.691 163.316 393.758 163.703 391.262 163.703C384.688 163.703 380.434 160.574 380.434 152.488V132.344H374.809V124.961H380.434V115.609H390.488V124.961H396.992ZM400.156 143.629C400.156 132.555 406.695 124.258 418.121 124.258C429.652 124.258 436.156 132.555 436.156 143.629V144.367C436.156 155.441 429.652 163.703 418.191 163.703C406.695 163.703 400.156 155.441 400.156 144.367V143.629ZM410.246 144.367C410.246 150.59 412.391 155.582 418.191 155.582C423.887 155.582 426.066 150.59 426.066 144.367V143.629C426.066 137.547 423.922 132.379 418.121 132.379C412.426 132.379 410.246 137.547 410.246 143.629V144.367ZM277.602 215.395V222.988H258.512V238.211H283.965V245.91H223.602V238.211H248.984V222.988H230.352V191.77H239.984V215.395H277.602ZM350.199 237.895V245.664H289.836V237.895H315.148V225.625H296.199V190.891H305.691V201.191H334.168V190.891H343.625V225.625H324.711V237.895H350.199ZM305.691 218.031H334.168V208.715H305.691V218.031ZM410 219.684V227.277H390.98V238.352H416.434V246.051H356.07V238.352H381.453V227.277H363.102V191.207H409.508V198.871H372.875V205.375H407.961V212.828H372.875V219.684H410Z" fill="white"/>
</svg>
